USFL
nRows=184
nColumns=2
inDegrees=yes
endheader
time	med_gas_r	
2.74982	 37.971592	
2.81232	 38.264115	
2.87482	 38.357097	
2.93731	 38.370576	
2.99981	 38.402954	
3.0623	 38.357651	
3.1248	 38.325917	
3.1873	 38.279015	
3.24979	 38.257578	
3.31229	 38.274128	
3.37478	 38.315858	
3.43728	 38.337478	
3.49978	 38.403167	
3.56227	 38.540291	
3.62477	 38.621647	
3.68726	 38.702350	
3.74976	 38.718040	
3.81226	 38.610585	
3.87475	 38.716270	
3.93725	 38.692469	
3.99974	 38.725714	
4.06224	 38.419212	
4.12474	 38.477351	
4.18723	 38.235792	
4.24973	 37.854380	
4.31222	 37.563652	
4.37472	 37.575588	
4.43722	 37.595825	
4.49971	 37.625713	
4.56221	 37.640051	
4.6247	 37.648295	
4.6872	 37.536859	
4.7497	 37.593244	
4.81219	 37.691059	
4.87469	 37.962180	
4.93718	 38.201794	
4.99968	 38.036292	
5.06218	 37.923130	
5.12467	 37.839412	
5.18717	 37.845878	
5.24966	 37.796107	
5.31216	 37.698026	
5.37466	 37.585348	
5.43715	 37.635141	
5.49965	 37.645155	
5.56214	 38.012020	
5.62464	 38.174573	
5.68714	 38.269236	
5.74963	 38.339648	
5.81213	 34.745153	
5.87462	 34.903893	
5.93712	 35.053730	
5.99962	 35.022985	
6.06211	 35.048562	
6.12461	 35.136949	
6.1871	 35.156555	
6.2496	 35.146379	
6.3121	 35.061415	
6.37459	 34.641709	
6.43709	 34.754201	
6.49958	 34.668542	
6.56208	 34.776375	
6.62458	 34.738983	
6.68707	 34.890542	
6.74957	 34.834943	
6.81206	 33.186015	
6.87456	 33.099967	
6.93706	 33.059425	
6.99955	 33.112505	
7.06205	 33.151833	
7.12454	 33.149974	
7.18704	 33.255097	
7.24954	 33.235366	
7.31203	 33.302495	
7.37453	 33.281881	
7.43702	 33.294643	
7.49952	 33.212686	
7.56202	 33.290255	
7.62451	 33.204667	
7.68701	 33.289260	
7.7495	 33.315868	
7.812	 33.301523	
7.8745	 33.243482	
7.93699	 33.142207	
7.99949	 33.255389	
8.06198	 33.285696	
8.12448	 33.247015	
8.18698	 33.177237	
8.24947	 33.134190	
8.31197	 33.263086	
8.37446	 33.343680	
8.43696	 33.347210	
8.49946	 33.421583	
8.56195	 33.435328	
8.62445	 33.318635	
8.68694	 33.408731	
8.74944	 33.454537	
8.81194	 33.458837	
8.87443	 32.982990	
8.93693	 33.081765	
8.99942	 33.060985	
9.06192	 33.122767	
9.12442	 33.275311	
9.18691	 33.372648	
9.24941	 33.479168	
9.3119	 33.540693	
9.3744	 33.351332	
9.4369	 33.308869	
9.49939	 33.295218	
9.56189	 33.458568	
9.62438	 33.457217	
9.68688	 33.628113	
9.74938	 33.624331	
9.81187	 33.713129	
9.87437	 33.845377	
9.93686	 33.834697	
9.99936	 33.813719	
10.0619	 33.754799	
10.1244	 33.749507	
10.1868	 33.813051	
10.2493	 33.867789	
10.3118	 33.908844	
10.3743	 33.870484	
10.4368	 33.814182	
10.4993	 33.773071	
10.5618	 33.782130	
10.6243	 33.662717	
10.6868	 33.720270	
10.7493	 33.796989	
10.8118	 33.954507	
10.8743	 33.959750	
10.9368	 33.817434	
10.9993	 33.841345	
11.0618	 33.834085	
11.1243	 33.695202	
11.1868	 33.553502	
11.2493	 33.627145	
11.3118	 33.680594	
11.3743	 33.495146	
11.4368	 33.317202	
11.4993	 33.413968	
11.5618	 33.477732	
11.6243	 33.507011	
11.6868	 33.715704	
11.7492	 33.778372	
11.8117	 33.742749	
11.8742	 33.838889	
11.9367	 33.743999	
11.9992	 33.806868	
12.0617	 33.766017	
12.1242	 33.673875	
12.1867	 33.614753	
12.2492	 33.515944	
12.3117	 33.424192	
12.3742	 33.474988	
12.4367	 33.624414	
12.4992	 33.683452	
12.5617	 33.666809	
12.6242	 33.647551	
12.6867	 33.621224	
12.7492	 33.646736	
12.8117	 33.694442	
12.8742	 33.528638	
12.9367	 33.559790	
12.9992	 33.522688	
13.0617	 33.627852	
13.1242	 33.772530	
13.1867	 33.707698	
13.2492	 33.743528	
13.3116	 33.766907	
13.3741	 33.776711	
13.4366	 33.761073	
13.4991	 33.757993	
13.5616	 33.710773	
13.6241	 33.694605	
13.6866	 33.617908	
13.7491	 33.533991	
13.8116	 33.534022	
13.8741	 33.504239	
13.9366	 33.474097	
13.9991	 33.507023	
14.0616	 33.532546	
14.1241	 33.531799	
14.1866	 33.434330	
